<?xml version="1.0" encoding="utf-8"?>
<!-- Generator: Adobe Illustrator 26.3.1, SVG Export Plug-In . SVG Version: 6.00 Build 0)  -->
<svg version="1.1" id="Слой_1" xmlns="http://www.w3.org/2000/svg" xmlns:xlink="http://www.w3.org/1999/xlink" x="0px" y="0px"
	 viewBox="0 0 512 512" style="enable-background:new 0 0 512 512;" xml:space="preserve">
<style type="text/css">
	.st0{fill:#FFFFFF;}
</style>
<g id="_1">
	<path class="st0" d="M397.8,316H192.6c-7,0-13.1-4.8-14.6-11.7l-34.5-150.5c-1.9-8.1,3.2-16.1,11.3-18c1.1-0.3,2.2-0.4,3.4-0.4
		h274.3c8.3,0,15,6.7,15,15c0,1.1-0.1,2.3-0.4,3.4l-34.6,150.5C410.8,311.2,404.8,316,397.8,316z M204.6,286h181.2l27.7-120.5H176.9
		L204.6,286z"/>
	<path class="st0" d="M222,450c-31.7,0-57.5-25.7-57.5-57.5c0-31.7,25.7-57.5,57.5-57.5s57.5,25.7,57.5,57.5
		C279.4,424.3,253.7,450,222,450z M222,365c-15.2,0-27.5,12.3-27.5,27.5S206.8,420,222,420s27.5-12.3,27.5-27.5c0,0,0,0,0,0
		C249.5,377.4,237.2,365.1,222,365z"/>
	<path class="st0" d="M368.4,450c-31.7,0-57.5-25.7-57.5-57.5s25.7-57.5,57.5-57.5s57.5,25.7,57.5,57.5
		C425.9,424.3,400.2,450,368.4,450z M368.4,365c-15.2,0-27.5,12.3-27.5,27.5s12.3,27.5,27.5,27.5s27.5-12.3,27.5-27.5c0,0,0,0,0,0
		C395.9,377.4,383.6,365.1,368.4,365z"/>
	<path class="st0" d="M158.1,165.5c-6.5,0-12.2-4.1-14.2-10.3L118.1,78H70.7c-8.3,0-15-6.7-15-15s6.7-15,15-15H129
		c6.5,0,12.2,4.1,14.2,10.3l29.1,87.5c2.6,7.9-1.6,16.4-9.5,19C161.3,165.2,159.7,165.5,158.1,165.5L158.1,165.5z"/>
</g>
</svg>
